<?xml version="1.0" encoding="UTF-8" standalone="no"?>
<!-- Created with Inkscape (http://www.inkscape.org/) -->

<svg
   xmlns:dc="http://purl.org/dc/elements/1.1/"
   xmlns:cc="http://creativecommons.org/ns#"
   xmlns:rdf="http://www.w3.org/1999/02/22-rdf-syntax-ns#"
   xmlns:svg="http://www.w3.org/2000/svg"
   xmlns="http://www.w3.org/2000/svg"
   xmlns:sodipodi="http://sodipodi.sourceforge.net/DTD/sodipodi-0.dtd"
   xmlns:inkscape="http://www.inkscape.org/namespaces/inkscape"
   width="12.20445mm"
   height="14.07739mm"
   viewBox="0 0 12.20445 14.07739"
   version="1.1"
   id="svg3852"
   inkscape:version="0.92.2 2405546, 2018-03-11"
   sodipodi:docname="parl_portcullis.svg">
  <defs
     id="defs3846" />
  <sodipodi:namedview
     id="base"
     pagecolor="#cd5e5e"
     bordercolor="#666666"
     borderopacity="1.0"
     inkscape:pageopacity="0"
     inkscape:pageshadow="2"
     inkscape:zoom="1.979899"
     inkscape:cx="311.68225"
     inkscape:cy="-3.0885299"
     inkscape:document-units="mm"
     inkscape:current-layer="layer1"
     showgrid="false"
     inkscape:window-width="1920"
     inkscape:window-height="1058"
     inkscape:window-x="0"
     inkscape:window-y="0"
     inkscape:window-maximized="1" />
  <metadata
     id="metadata3849">
    <rdf:RDF>
      <cc:Work
         rdf:about="">
        <dc:format>image/svg+xml</dc:format>
        <dc:type
           rdf:resource="http://purl.org/dc/dcmitype/StillImage" />
        <dc:title></dc:title>
      </cc:Work>
    </rdf:RDF>
  </metadata>
  <g
     inkscape:label="Layer 1"
     inkscape:groupmode="layer"
     id="layer1"
     transform="translate(-15.064446,-17.818447)">
    <g
       transform="matrix(0.21011029,0,0,0.21011029,14.863362,17.818447)"
       style="fill:#ffffff"
       data-icon="portcullis"
       id="g3799">
      <path
         inkscape:connector-curvature="0"
         d="M 52.9,4.1 52.2,4.5 C 53,6 53.2,7.9 52.7,9.6 51.8,8.9 51.2,8 51,7 l -0.7,0.4 c -0.5,2 -1.4,4 -2.6,5.8 l 0.2,0.7 c 0.7,-0.4 1.5,-0.6 2.3,-0.5 0.3,0 0.5,0 0.8,0 -0.7,1.7 -2.3,2.8 -4.1,2.8 -1.8,0.1 -3.4,-0.9 -4.2,-2.5 0.5,-0.2 0.9,-0.7 1.1,-1.3 0.2,-0.9 -0.4,-1.3 -0.2,-2.2 0.2,-0.8 0.9,-1.3 1.6,-1.3 0.8,0.1 1.5,0.6 1.6,1.4 0.7,-0.4 1.1,-1.2 1,-2 C 47.7,7.5 47.2,6.8 46.4,6.6 45.7,6.3 44.8,6.5 44.3,7.1 44.6,6.6 44.8,6.1 44.9,5.6 45.1,4.3 44.9,3 44.1,2 42.9,2.6 42,3.7 41.8,5 41.6,5.5 41.6,6.1 41.7,6.6 41.4,5.9 40.7,5.3 39.9,5.3 39.1,5.2 38.4,5.6 38,6.3 37.6,7 37.6,7.8 38.1,8.5 38.5,7.8 39.3,7.6 40,7.9 c 0.7,0.3 1.1,1 1,1.8 -0.2,0.8 -0.9,1 -1.1,1.9 -0.1,0.5 0,1 0.3,1.4 l 0.1,0.2 c -1.6,1.2 -3.8,1.5 -5.6,0.6 -1.9,-0.9 -3,-2.8 -3,-4.8 V 8.5 c 1.6,0.3 3.1,1.1 4.2,2.4 l 0.6,-0.6 V 3.9 L 35.9,3.3 c -1.1,1.2 -2.6,2 -4.2,2.3 -0.1,-2.3 1.5,-4.3 3.7,-4.8 L 34.8,0.2 C 33.2,0.1 31.6,0 30,0 28.4,0 26.8,0.1 25.2,0.2 l -0.6,0.6 c 2.2,0.5 3.8,2.5 3.8,4.8 C 26.7,5.3 25.2,4.5 24.1,3.3 l -0.6,0.6 v 6.4 l 0.6,0.5 c 1.1,-1.2 2.6,-2 4.3,-2.3 V 9 c -0.1,2 -1.2,3.9 -3,4.8 -1.9,0.9 -4,0.7 -5.7,-0.6 l 0.1,-0.1 c 0.3,-0.5 0.4,-1 0.3,-1.5 C 19.9,10.7 19.2,10.6 19,9.7 18.8,9 19.2,8.2 20,7.9 20.7,7.6 21.5,7.8 22,8.5 22.4,7.8 22.4,7 22,6.3 21.6,5.6 20.9,5.2 20.1,5.3 19.3,5.3 18.6,5.9 18.3,6.6 18.4,6.1 18.4,5.5 18.2,5 18,3.7 17.1,2.6 15.9,2 c -0.8,1 -1.1,2.4 -0.8,3.7 0.1,0.5 0.3,1 0.6,1.5 -0.6,-0.6 -1.4,-0.8 -2.2,-0.5 -0.7,0.2 -1.3,0.9 -1.3,1.7 -0.1,0.8 0.3,1.6 1,2 0.1,-0.8 0.7,-1.3 1.5,-1.4 0.8,0 1.5,0.5 1.7,1.3 0.2,0.9 -0.4,1.3 -0.2,2.1 0.1,0.6 0.5,1.1 1.1,1.4 -0.8,1.6 -2.5,2.5 -4.3,2.5 -1.7,-0.1 -3.3,-1.2 -4,-2.8 0.3,-0.1 0.5,-0.1 0.8,-0.1 0.8,0 1.6,0.2 2.3,0.6 l 0.2,-0.8 C 11.1,11.4 10.2,9.5 9.6,7.4 L 9,7 C 8.8,8 8.2,8.9 7.3,9.6 6.8,7.9 7,6 7.8,4.5 L 7.1,4.1 C 6,4.5 4.3,5.2 3.1,5.7 L 10,21.1 c 12.7,-5.6 27.2,-5.6 40,0 L 56.8,5.7 C 55.7,5.2 54.1,4.5 52.9,4.1 Z"
         id="path3795" />
      <path
         inkscape:connector-curvature="0"
         d="m 59,33 c 0.1,-1.8 -1.2,-3.5 -3,-3.9 v -2.2 c 2,-0.5 3.3,-2.4 3,-4.4 -0.2,-2 -2,-3.5 -4,-3.5 -1.8,-0.1 -3.5,1.2 -3.9,3 H 8.9 C 8.5,20.2 6.8,18.9 5,19 3.9,19 2.9,19.4 2.1,20.1 1.4,20.9 1,21.9 1,23 c -0.1,1.8 1.2,3.5 3,3.9 v 2.2 c -1.8,0.5 -3,2.1 -3,3.9 0,1.8 1.2,3.5 3,3.9 v 2.2 c -1.8,0.5 -3,2.1 -3,3.9 0,1.8 1.2,3.5 3,3.9 v 2.2 c -1.8,0.5 -3,2.1 -3,3.9 0,1.8 1.2,3.5 3,3.9 v 2.2 c -2,0.5 -3.3,2.4 -3,4.4 0.3,2 2,3.5 4,3.5 2,0 3.8,-1.5 4,-3.5 0.3,-2 -1,-3.9 -3,-4.4 V 56.9 C 7.8,56.5 9,54.8 9,53 9,51.2 7.8,49.6 6,49.1 V 46.9 C 7.8,46.5 9,44.8 9,43 9,41.2 7.8,39.6 6,39.1 V 36.9 C 7.8,36.5 9,34.8 9,33 9,31.2 7.8,29.6 6,29.1 V 26.9 C 7.4,26.6 8.6,25.4 8.9,24 H 11 v 43 h 0.5 c 1,-3.1 2.5,-5.9 4.5,-8.5 V 58 h -2 v -6 h 5 v 6 h -1 v 0.6 c 1.3,2.6 2.3,5.5 2.8,8.4 h 0.4 c 0.5,-2.9 1.5,-5.8 2.8,-8.4 V 58 h -1 v -6 h 5 v 6 h -1 v 0.6 c 1.3,2.6 2.3,5.5 2.8,8.4 h 0.4 c 0.5,-2.9 1.5,-5.8 2.8,-8.4 V 58 h -1 v -6 h 5 v 6 h -1 v 0.6 c 1.3,2.6 2.3,5.5 2.8,8.4 h 0.4 c 0.5,-2.9 1.5,-5.8 2.8,-8.4 V 58 h -1 v -6 h 5 v 6 h -2 v 0.5 c 2,2.6 3.5,5.4 4.5,8.5 H 49 V 24 h 2.1 c 0.3,1.4 1.5,2.6 2.9,2.9 v 2.2 c -1.8,0.5 -3,2.1 -3,3.9 0,1.8 1.2,3.5 3,3.9 v 2.2 c -1.8,0.5 -3,2.1 -3,3.9 0,1.8 1.2,3.5 3,3.9 v 2.2 c -1.8,0.5 -3,2.1 -3,3.9 0,1.8 1.2,3.5 3,3.9 v 2.2 c -2,0.5 -3.2,2.4 -3,4.4 0.3,2 2,3.5 4,3.5 2,0 3.7,-1.5 4,-3.5 0.2,-2 -1,-3.9 -3,-4.4 v -2.2 c 1.8,-0.4 3,-2.1 3,-3.9 0,-1.8 -1.2,-3.4 -3,-3.9 v -2.2 c 1.8,-0.4 3,-2.1 3,-3.9 0,-1.8 -1.2,-3.4 -3,-3.9 v -2.2 c 1.8,-0.4 3.1,-2.1 3,-3.9 z M 7,63 C 7,63.5 6.8,64.1 6.4,64.4 6.1,64.8 5.5,65 5,65 4.1,65 3.2,64.4 3,63.5 2.7,62.6 3.2,61.6 4,61.2 4.1,61.7 4.5,62 5,62 5.5,62 5.9,61.7 6,61.2 6.7,61.6 7,62.3 7,63 Z M 7,53 C 7,53.7 6.7,54.4 6,54.8 5.9,54.3 5.5,54 5,54 4.5,54 4.1,54.3 4,54.8 3.4,54.4 3,53.7 3,53 3,52.3 3.4,51.6 4,51.2 4.1,51.7 4.5,52 5,52 5.5,52 5.9,51.7 6,51.2 6.7,51.6 7,52.3 7,53 Z M 7,43 C 7,43.7 6.7,44.4 6,44.8 5.9,44.3 5.5,44 5,44 4.5,44 4.1,44.3 4,44.8 3.4,44.4 3,43.7 3,43 3,42.3 3.4,41.6 4,41.2 4.1,41.7 4.5,42 5,42 5.5,42 5.9,41.7 6,41.2 6.7,41.6 7,42.3 7,43 Z M 6,24.8 C 5.9,24.3 5.5,24 5,24 4.5,24 4.1,24.3 4,24.8 3.2,24.4 2.7,23.4 3,22.5 3.2,21.6 4.1,21 5,21 c 0.9,0 1.8,0.6 2,1.5 0.3,0.9 -0.2,1.9 -1,2.3 z M 19,49 h -5 v -6 h 5 z m 0,-9 h -5 v -6 h 5 z m 0,-9 h -5 v -6 h 5 z m 9,18 h -5 v -6 h 5 z m 0,-9 h -5 v -6 h 5 z m 0,-9 h -5 v -6 h 5 z m 9,18 h -5 v -6 h 5 z m 0,-9 h -5 v -6 h 5 z m 0,-9 h -5 v -6 h 5 z m 9,18 h -5 v -6 h 5 z m 0,-9 h -5 v -6 h 5 z m 0,-9 h -5 v -6 h 5 z m 7,-8 c 0,-1 0.7,-1.8 1.7,-1.9 0.9,-0.2 1.9,0.4 2.2,1.3 0.3,0.9 -0.1,1.9 -0.9,2.4 0,-0.6 -0.4,-1 -1,-1 -0.6,0 -1,0.4 -1,1 -0.7,-0.4 -1,-1.1 -1,-1.8 z m 4,40 c 0,1 -0.7,1.8 -1.7,1.9 -0.9,0.2 -1.9,-0.4 -2.2,-1.3 -0.3,-0.9 0.1,-1.9 0.9,-2.4 0,0.6 0.4,1 1,1 0.6,0 1,-0.4 1,-1 0.7,0.4 1,1.1 1,1.8 z m 0,-10 c 0,0.7 -0.3,1.4 -1,1.8 0,-0.6 -0.4,-1 -1,-1 -0.6,0 -1,0.4 -1,1 -0.6,-0.4 -1,-1.1 -1,-1.8 0,-0.7 0.4,-1.4 1,-1.8 0,0.6 0.4,1 1,1 0.6,0 1,-0.4 1,-1 0.7,0.4 1,1.1 1,1.8 z m 0,-10 c 0,0.7 -0.3,1.4 -1,1.8 0,-0.6 -0.4,-1 -1,-1 -0.6,0 -1,0.4 -1,1 -0.6,-0.4 -1,-1.1 -1,-1.8 0,-0.7 0.4,-1.4 1,-1.8 0,0.6 0.4,1 1,1 0.6,0 1,-0.4 1,-1 0.7,0.4 1,1.1 1,1.8 z M 7,33 C 7,33.7 6.7,34.4 6,34.8 5.9,34.3 5.5,34 5,34 4.5,34 4.1,34.3 4,34.8 3.4,34.4 3,33.7 3,33 3,32.3 3.4,31.6 4,31.2 4.1,31.7 4.5,32 5,32 c 0.5,0 0.9,-0.3 1,-0.8 0.7,0.4 1,1.1 1,1.8 z m 50,0 c 0,0.7 -0.3,1.4 -1,1.8 0,-0.6 -0.4,-1 -1,-1 -0.6,0 -1,0.4 -1,1 -0.6,-0.4 -1,-1.1 -1,-1.8 0,-0.7 0.4,-1.4 1,-1.8 0,0.6 0.4,1 1,1 0.6,0 1,-0.4 1,-1 0.7,0.4 1,1.1 1,1.8 z"
         id="path3797" />
    </g>
  </g>
</svg>
